<?xml version="1.0" standalone="no"?>
<!DOCTYPE svg PUBLIC "-//W3C//DTD SVG 20010904//EN"
 "http://www.w3.org/TR/2001/REC-SVG-20010904/DTD/svg10.dtd">
<svg version="1.0" xmlns="http://www.w3.org/2000/svg"
 width="393.000000pt" height="393.000000pt" viewBox="0 0 393.000000 393.000000"
 preserveAspectRatio="xMidYMid meet">
<metadata>
Created by potrace 1.11, written by Peter Selinger 2001-2013
</metadata>
<g transform="translate(0.000000,393.000000) scale(0.100000,-0.100000)"
fill="#000000" stroke="none">
<path d="M6 3914 c-3 -9 -6 -101 -6 -206 0 -168 2 -189 15 -178 8 7 15 21 15
31 0 23 37 62 50 54 6 -4 10 -17 10 -31 0 -14 5 -34 11 -45 7 -15 7 -24 -2
-35 -16 -20 -28 -17 -39 9 -5 13 -9 16 -9 6 -1 -25 -22 -40 -38 -28 -11 9 -13
-11 -13 -114 0 -75 5 -136 12 -152 9 -19 9 -28 0 -37 -7 -7 -12 -34 -12 -61 0
-45 2 -49 20 -44 12 3 34 2 50 -3 25 -7 32 -5 41 11 6 13 16 18 26 15 9 -4 22
-1 31 6 13 11 14 9 8 -17 -12 -52 -28 -85 -41 -85 -7 0 -18 -6 -24 -14 -15
-18 9 -39 41 -34 37 5 37 -43 0 -81 -38 -40 -62 -41 -62 -2 0 40 -37 51 -42
12 -2 -18 -10 -27 -26 -29 l-22 -3 0 -265 c0 -199 3 -263 12 -261 18 3 21 -29
3 -46 -13 -14 -15 -93 -15 -674 l0 -659 40 4 c23 3 47 -1 56 -8 13 -11 9 -16
-27 -37 -32 -18 -45 -21 -55 -12 -12 10 -14 -59 -14 -445 l0 -456 799 0 c753
0 800 1 804 17 4 17 5 17 6 1 1 -16 12 -18 80 -18 54 0 81 4 85 13 5 9 7 9 12
0 7 -15 104 -18 104 -3 0 6 5 10 11 10 5 0 7 -4 4 -10 -4 -6 346 -10 1010 -10
l1015 0 0 575 c0 506 -2 574 -15 569 -8 -4 -15 -1 -15 5 0 7 7 14 15 17 12 5
15 30 15 141 0 128 -1 136 -22 154 l-23 19 22 6 23 6 0 1219 0 1219 -1168 0
c-908 0 -1171 -3 -1180 -12 -10 -10 -17 -10 -32 0 -13 8 -62 12 -139 12 -114
0 -119 -1 -114 -20 6 -23 -22 -39 -39 -22 -8 8 -8 15 2 27 11 13 -51 15 -618
15 -565 0 -630 -2 -636 -16z m544 -33 c0 -6 -4 -13 -10 -16 -5 -3 -10 1 -10 9
0 9 5 16 10 16 6 0 10 -4 10 -9z m1025 -11 c8 -13 -13 -40 -31 -40 -14 0 -19
31 -7 43 10 10 31 8 38 -3z m155 -60 c0 -10 -58 -50 -72 -50 -14 0 -8 21 13
51 17 24 24 27 40 19 10 -6 19 -15 19 -20z m-240 6 c0 -15 -18 -31 -26 -23 -7
7 7 37 17 37 5 0 9 -6 9 -14z m107 -27 c-10 -18 -9 -23 11 -36 12 -9 22 -19
22 -24 0 -12 -81 -50 -91 -43 -5 3 -17 1 -26 -4 -46 -24 -61 34 -17 63 14 9
28 14 31 11 3 -3 14 6 25 19 11 14 24 23 29 20 5 -4 9 1 9 10 0 9 4 13 10 10
6 -4 5 -14 -3 -26z m-1531 10 c10 -16 -23 -46 -36 -33 -6 6 -8 18 -4 27 7 19
29 22 40 6z m351 -95 c3 -8 -1 -22 -9 -30 -13 -13 -16 -13 -28 0 -10 13 -10
19 0 31 16 19 29 19 37 -1z m58 -65 c0 -7 -8 -15 -17 -17 -15 -3 -16 3 -9 36
3 10 26 -7 26 -19z m271 -7 c-3 -5 5 -8 17 -8 29 1 34 -30 7 -44 -26 -14 -26
-14 -35 28 -4 21 -3 32 5 32 6 0 9 -4 6 -8z m-331 -12 c7 -12 -26 -82 -42 -88
-23 -7 -24 25 -3 62 22 37 34 44 45 26z m85 -15 c0 -8 -4 -15 -10 -15 -5 0 -7
7 -4 15 4 8 8 15 10 15 2 0 4 -7 4 -15z m968 3 c19 -19 14 -37 -13 -44 -14 -3
-25 -13 -25 -21 0 -10 -9 -13 -27 -11 -37 4 -40 24 -6 42 15 8 24 15 19 16
-13 0 15 30 28 30 7 0 17 -5 24 -12z m-884 -52 c-9 -23 -44 -20 -44 4 0 25 32
44 43 25 4 -7 4 -20 1 -29z m252 5 c-4 -6 -14 -11 -22 -11 -12 0 -12 3 -2 20
7 11 16 16 21 11 5 -5 6 -14 3 -20z m-625 -18 c19 -51 -16 -75 -41 -28 -11 20
-11 27 0 40 18 22 29 19 41 -12z m509 -21 c0 -10 -22 -32 -32 -32 -5 0 -3 9 4
20 13 20 28 27 28 12z m152 -4 c8 -20 -2 -38 -19 -38 -10 0 -13 6 -9 16 3 9 6
20 6 25 0 13 17 11 22 -3z m308 -24 c11 -12 10 -18 -3 -31 -8 -9 -23 -13 -31
-10 -19 8 -21 43 -3 50 20 9 24 8 37 -9z m50 -8 c0 -11 -19 -15 -25 -6 -3 5 1
10 9 10 9 0 16 -2 16 -4z m-1070 -47 c0 -5 -4 -9 -10 -9 -5 0 -10 7 -10 16 0
8 5 12 10 9 6 -3 10 -10 10 -16z m690 -14 c0 -18 -5 -25 -19 -25 -23 0 -34 23
-18 39 19 19 37 12 37 -14z m2715 15 c-3 -5 -15 -10 -26 -10 -10 0 -19 5 -19
10 0 6 12 10 26 10 14 0 23 -4 19 -10z m-3435 -48 c0 -12 3 -13 12 -4 18 18
38 14 38 -8 0 -11 -7 -20 -15 -20 -25 0 -29 -1 -42 -12 -8 -6 -18 -3 -32 11
-17 17 -19 24 -9 40 13 22 48 17 48 -7z m156 -37 c-3 -8 -10 -15 -15 -15 -7 0
-6 10 1 26 12 26 25 16 14 -11z m514 10 c0 -20 -20 -29 -33 -16 -8 8 -8 11 1
11 7 0 12 7 12 16 0 8 5 12 10 9 6 -3 10 -12 10 -20z m-720 -30 c0 -8 -5 -17
-10 -20 -6 -4 -10 5 -10 20 0 15 4 24 10 20 6 -3 10 -12 10 -20z m684 -30 c-6
-16 -24 -21 -24 -7 0 11 11 22 21 22 5 0 6 -7 3 -15z m90 -23 c7 -12 10 -12
18 -1 8 12 9 11 6 -1 -3 -8 -17 -21 -32 -28 -22 -11 -25 -16 -15 -28 17 -21 4
-29 -47 -30 -41 -1 -45 1 -42 20 2 13 10 20 21 20 13 -1 16 3 12 16 -10 30 14
57 44 52 14 -3 30 -12 35 -20z m945 4 c38 5 57 2 83 -12 25 -14 56 -18 125
-18 74 -1 96 -5 114 -19 11 -10 30 -20 41 -22 23 -5 43 -27 63 -70 7 -16 35
-50 60 -75 26 -25 54 -61 62 -80 23 -52 39 -195 32 -275 -4 -38 -10 -104 -14
-145 l-7 -75 20 31 c11 17 25 58 32 90 6 32 14 66 17 74 3 8 7 39 9 69 3 42 9
58 29 77 l26 24 23 -23 c29 -30 42 -104 26 -155 -21 -64 -99 -219 -114 -225
-7 -3 -25 1 -39 8 -25 13 -25 13 -32 -39 -4 -28 -13 -74 -20 -103 -7 -28 -11
-53 -10 -55 2 -2 6 -68 10 -148 3 -80 8 -157 11 -172 8 -39 50 -76 132 -115
40 -18 76 -41 79 -49 9 -25 -21 -77 -86 -147 -70 -74 -114 -97 -265 -134 -101
-25 -199 -27 -291 -7 -27 7 -29 6 -16 -9 8 -10 9 -17 3 -17 -6 0 -13 8 -17 19
-3 11 -21 23 -45 29 -27 7 -38 7 -34 0 4 -6 1 -9 -5 -7 -7 3 -11 8 -9 13 2 4
-8 14 -22 21 -31 18 -43 19 -34 3 4 -7 5 -11 1 -8 -3 3 -5 9 -6 13 0 12 -123
93 -134 89 -12 -3 -37 17 -37 30 0 6 8 4 18 -3 14 -11 14 -10 -2 8 -10 13 -22
20 -27 18 -4 -3 -11 0 -15 6 -4 8 -3 9 4 5 19 -12 14 10 -9 35 -20 24 -20 24
-9 2 16 -34 4 -27 -19 11 -25 39 -28 58 -5 30 15 -19 16 -19 8 1 -20 56 -17
78 12 102 l29 23 -1 172 c-1 120 -6 190 -17 228 -8 30 -18 67 -21 81 -5 22
-10 25 -31 21 -30 -5 -55 13 -55 40 0 11 -13 35 -30 54 -17 19 -38 63 -50 102
-21 72 -27 182 -10 182 6 0 10 -11 10 -24 0 -13 7 -29 15 -36 10 -9 15 -9 15
-1 0 9 30 17 30 9 1 -59 70 -262 84 -247 2 2 -5 45 -15 94 -34 161 -18 349 35
420 9 11 16 37 16 58 0 40 27 100 57 124 10 8 11 11 3 7 -11 -5 -10 -2 3 12
10 10 25 29 35 40 10 12 33 31 52 42 31 18 38 18 58 6 16 -10 37 -13 71 -8z
m1591 -42 c0 -8 -5 -12 -10 -9 -6 4 -8 11 -5 16 9 14 15 11 15 -7z m-3288 -39
c7 -35 -19 -56 -38 -30 -19 25 -18 42 3 54 22 12 29 7 35 -24z m78 5 c0 -11
-6 -20 -12 -20 -8 -1 -6 -6 5 -14 21 -16 22 -30 3 -45 -11 -10 -20 -10 -36 -1
-19 10 -21 17 -15 48 9 47 12 52 36 52 12 0 19 -7 19 -20z m216 -78 c-15 -15
-16 -15 -16 5 0 12 6 23 13 26 19 6 21 -13 3 -31z m-146 -42 c0 -5 -2 -10 -4
-10 -3 0 -8 5 -11 10 -3 6 -1 10 4 10 6 0 11 -4 11 -10z m130 -6 c0 -25 -22
-108 -33 -121 -5 -7 -13 -11 -17 -8 -5 3 -12 0 -15 -5 -4 -6 -19 -10 -33 -8
-26 3 -27 0 -32 -47 -7 -70 -32 -69 -43 3 -10 64 4 109 38 118 13 3 25 14 28
24 3 10 24 28 48 39 53 25 59 25 59 5z m3054 -257 c8 -12 7 -20 -2 -29 -16
-16 -47 13 -38 37 7 19 25 16 40 -8z m-3304 -47 c-17 -32 -30 -33 -30 -2 0 35
9 45 26 31 10 -8 11 -16 4 -29z m-73 5 c-8 -20 -27 -20 -27 1 0 8 5 12 10 9 6
-3 10 -1 10 6 0 7 3 10 6 6 4 -3 4 -13 1 -22z m283 -16 c0 -7 7 -17 16 -23 18
-13 10 -41 -13 -51 -20 -7 -31 9 -28 38 1 12 3 28 4 35 1 15 21 16 21 1z m140
-33 c0 -7 -8 -20 -17 -27 -15 -12 -16 -12 -10 4 4 10 7 23 7 28 0 5 5 9 10 9
6 0 10 -6 10 -14z m-367 -30 c6 -15 -1 -26 -15 -26 -4 0 -8 9 -8 20 0 23 15
27 23 6z m3027 -16 c0 -5 -2 -10 -4 -10 -3 0 -8 5 -11 10 -3 6 -1 10 4 10 6 0
11 -4 11 -10z m-2723 -142 c-3 -8 -6 -5 -6 6 -1 11 2 17 5 13 3 -3 4 -12 1
-19z m2232 -134 l20 -34 -20 -11 c-16 -8 -25 -7 -40 7 -25 22 -33 52 -19 69
16 19 36 9 59 -31z m-2464 7 c-3 -6 -11 -11 -17 -11 -6 0 -6 6 2 15 14 17 26
13 15 -4z m-125 -35 c0 -3 -4 -8 -10 -11 -5 -3 -10 -1 -10 4 0 6 5 11 10 11 6
0 10 -2 10 -4z m417 -113 c-16 -16 -17 -16 -17 3 0 26 11 37 24 24 7 -7 5 -16
-7 -27z m2213 -34 c0 -22 -25 -26 -33 -5 -6 16 12 38 25 30 4 -3 8 -14 8 -25z
m-212 -77 c-14 -37 -24 -40 -33 -13 -4 13 1 27 12 39 25 26 35 13 21 -26z
m645 -169 c15 -29 12 -53 -6 -65 -14 -8 -48 57 -41 77 9 24 32 18 47 -12z
m-2452 -83 c-37 -39 -77 -41 -53 -3 10 16 64 43 73 37 5 -3 -4 -18 -20 -34z
m2189 26 c0 -3 -4 -8 -10 -11 -5 -3 -10 -1 -10 4 0 6 5 11 10 11 6 0 10 -2 10
-4z m-1376 -41 c-9 -14 -14 -34 -11 -45 3 -12 0 -20 -8 -20 -7 0 -15 -7 -19
-15 -3 -8 -1 -15 4 -15 6 0 10 -7 10 -16 0 -8 -4 -13 -9 -10 -5 4 -12 -8 -16
-25 l-7 -32 -20 31 c-24 39 -20 83 8 97 12 6 34 25 49 43 32 38 42 42 19 7z
m2036 -71 c0 -14 -4 -23 -10 -19 -5 3 -10 1 -10 -4 0 -6 -7 -11 -15 -11 -22 0
-18 27 7 44 29 20 28 21 28 -10z m-3460 -79 c0 -8 -4 -15 -10 -15 -5 0 -10 7
-10 15 0 8 5 15 10 15 6 0 10 -7 10 -15z m1418 -35 c6 -16 8 -29 4 -29 -21 3
-23 -3 -7 -21 10 -11 13 -20 8 -20 -14 0 -27 29 -24 53 1 9 -3 17 -9 17 -6 0
-8 -5 -4 -12 4 -7 3 -8 -4 -4 -8 5 -8 13 0 31 13 29 22 25 36 -15z m1952 27
c0 -7 -6 -21 -13 -31 -13 -18 -14 -18 -21 -1 -6 18 9 45 25 45 5 0 9 -6 9 -13z
m-2326 -79 c-7 -80 -12 -96 -35 -103 -16 -5 -18 -10 -8 -21 15 -19 29 -18 29
2 0 8 5 12 10 9 14 -8 13 -21 -3 -37 -8 -7 -17 -24 -20 -38 -15 -57 -39 -66
-39 -15 0 28 -13 33 -22 9 -4 -10 1 -25 10 -35 9 -10 14 -24 11 -31 -3 -8 -10
-1 -17 17 -12 29 -13 29 -19 7 -3 -13 -10 -22 -16 -21 -13 3 -34 32 -29 41 2
4 0 9 -5 13 -6 3 -8 12 -5 20 7 18 23 10 33 -18 l8 -21 12 22 c10 18 9 21 -4
16 -9 -4 -15 0 -15 9 0 9 8 13 23 12 20 -2 23 1 19 21 -2 13 -8 21 -13 18 -5
-3 -19 7 -32 22 -16 18 -26 24 -31 16 -4 -7 -1 -12 7 -12 24 0 16 -50 -8 -51
-25 -2 -26 -2 -48 3 -15 2 -19 -5 -22 -40 -2 -24 -6 -47 -10 -50 -10 -11 -25
22 -19 42 4 13 2 16 -6 11 -6 -4 -10 -16 -7 -26 3 -11 1 -19 -5 -19 -5 0 -6
-5 -2 -11 4 -7 1 -10 -7 -7 -17 6 -48 -41 -41 -61 4 -11 7 -10 13 5 6 16 7 14
6 -7 -1 -23 -4 -25 -19 -15 -10 6 -18 14 -18 18 0 4 -12 14 -28 22 l-27 14 4
-40 c2 -29 0 -39 -8 -33 -7 3 -9 15 -6 26 5 14 2 19 -12 19 -15 0 -16 -2 -3
-10 15 -10 8 -14 -21 -11 -9 1 -22 -5 -29 -14 -12 -14 -10 -15 15 -9 20 5 26
4 21 -5 -4 -6 -12 -9 -17 -6 -5 4 -9 -5 -9 -19 0 -14 -4 -26 -10 -26 -5 0 -7
8 -3 18 3 9 3 14 -2 10 -10 -9 -35 16 -35 35 0 22 73 128 114 166 26 24 43 32
60 29 17 -4 23 -1 19 9 -3 7 -1 13 4 13 5 0 18 9 30 19 29 27 102 63 113 56 6
-3 10 1 10 9 0 9 9 16 20 16 11 0 20 5 20 11 0 6 5 9 12 7 6 -2 34 8 62 24 28
15 52 28 53 28 1 0 -1 -24 -3 -52z m406 -49 c0 -6 -4 -7 -10 -4 -5 3 -10 11
-10 16 0 6 5 7 10 4 6 -3 10 -11 10 -16z m71 -22 c10 -3 19 -13 19 -24 -1 -17
-1 -17 -15 1 -8 11 -15 17 -15 14 0 -4 -3 -14 -7 -24 -5 -13 -3 -15 7 -9 8 5
11 4 6 -3 -3 -5 0 -12 6 -15 8 -2 9 -8 4 -13 -5 -5 -11 -4 -13 4 -7 17 -23 15
-23 -4 0 -8 -5 -12 -10 -9 -7 4 -6 14 1 28 9 16 9 22 0 25 -14 5 -15 32 -1 32
6 0 11 8 11 18 1 15 2 15 6 1 2 -10 13 -19 24 -22z m2154 -46 c3 -5 2 -12 -3
-15 -5 -3 -9 1 -9 9 0 17 3 19 12 6z m-2115 -25 c0 -3 -4 -8 -10 -11 -5 -3
-10 -1 -10 4 0 6 5 11 10 11 6 0 10 -2 10 -4z m70 -31 c0 -8 -2 -15 -4 -15 -2
0 -6 7 -10 15 -3 8 -1 15 4 15 6 0 10 -7 10 -15z m-64 -20 c9 -14 20 -22 25
-19 5 3 9 -2 9 -10 0 -22 -17 -20 -30 4 -6 11 -23 26 -38 34 -25 14 -26 15 -5
16 13 0 29 -10 39 -25z m-236 11 c0 -3 -4 -8 -10 -11 -5 -3 -10 -1 -10 4 0 6
5 11 10 11 6 0 10 -2 10 -4z m16 -54 c-17 -16 -18 -16 -5 5 7 12 15 20 18 17
3 -2 -3 -12 -13 -22z m129 8 c3 -5 1 -10 -4 -10 -6 0 -11 5 -11 10 0 6 2 10 4
10 3 0 8 -4 11 -10z m-698 -44 c-3 -7 -1 -19 4 -25 5 -6 2 -5 -7 3 -9 8 -13
19 -10 25 10 16 19 14 13 -3z m118 -15 c-6 -5 -25 10 -25 20 0 5 6 4 14 -3 8
-7 12 -15 11 -17z m685 20 c0 -5 -7 -11 -15 -15 -9 -3 -15 0 -15 9 0 8 7 15
15 15 8 0 15 -4 15 -9z m-171 -29 c-5 -2 -6 -9 -3 -14 4 -7 2 -8 -4 -4 -7 4
-12 1 -12 -9 0 -13 -2 -14 -14 -3 -12 11 -11 14 5 20 13 5 17 13 12 25 -6 15
-5 16 9 3 9 -8 12 -17 7 -18z m309 9 c3 -10 0 -10 -17 -2 -25 14 -27 20 -4 17
9 -2 19 -8 21 -15z m-248 -1 c0 -5 -2 -10 -4 -10 -3 0 -8 5 -11 10 -3 6 -1 10
4 10 6 0 11 -4 11 -10z m-180 -26 c0 -8 -5 -12 -10 -9 -6 4 -8 11 -5 16 9 14
15 11 15 -7z m190 -14 c0 -5 -5 -10 -11 -10 -5 0 -7 5 -4 10 3 6 8 10 11 10 2
0 4 -4 4 -10z m154 -5 c3 -8 1 -15 -3 -15 -5 0 -11 7 -15 15 -3 8 -1 15 3 15
5 0 11 -7 15 -15z m356 -1 c0 -2 -7 -4 -15 -4 -8 0 -15 4 -15 10 0 5 7 7 15 4
8 -4 15 -8 15 -10z m40 10 c0 -3 -7 -12 -15 -20 -16 -17 -18 -14 -9 10 6 15
24 23 24 10z m70 -5 c0 -5 -5 -7 -11 -3 -8 4 -9 -1 -5 -17 6 -20 5 -21 -4 -6
-6 9 -19 17 -28 18 -14 0 -13 2 3 9 28 12 45 12 45 -1z m1239 -15 c-6 -7 -15
-11 -21 -8 -5 3 -4 12 3 20 6 7 15 11 21 8 5 -3 4 -12 -3 -20z m-1911 4 c-2
-6 -10 -14 -16 -16 -7 -2 -10 2 -6 12 7 18 28 22 22 4z m287 2 c-3 -5 -13 -10
-21 -10 -8 0 -12 5 -9 10 3 6 13 10 21 10 8 0 12 -4 9 -10z m215 6 c0 -11 -19
-15 -25 -6 -3 5 1 10 9 10 9 0 16 -2 16 -4z m-585 -16 c3 -5 1 -10 -4 -10 -6
0 -11 5 -11 10 0 6 2 10 4 10 3 0 8 -4 11 -10z m265 0 c0 -5 -5 -10 -11 -10
-5 0 -7 5 -4 10 3 6 8 10 11 10 2 0 4 -4 4 -10z m1615 -10 c3 -5 1 -10 -4 -10
-6 0 -11 5 -11 10 0 6 2 10 4 10 3 0 8 -4 11 -10z m-1918 -22 c-3 -8 -6 -5 -6
6 -1 11 2 17 5 13 3 -3 4 -12 1 -19z m408 12 c3 -5 1 -10 -4 -10 -6 0 -11 5
-11 10 0 6 2 10 4 10 3 0 8 -4 11 -10z m-205 -8 c0 -5 -7 -17 -16 -28 -8 -10
-13 -13 -9 -6 3 6 2 12 -4 12 -5 0 -11 -4 -13 -9 -5 -14 -58 -25 -58 -12 0 6
12 11 26 11 14 0 23 4 19 10 -3 6 -1 11 4 11 26 3 30 4 37 12 10 9 14 9 14 -1z
m-980 -18 c0 -8 -4 -12 -10 -9 -5 3 -10 10 -10 16 0 5 5 9 10 9 6 0 10 -7 10
-16z m1647 -6 c-3 -8 -6 -5 -6 6 -1 11 2 17 5 13 3 -3 4 -12 1 -19z m1020 16
c-3 -3 -12 -4 -19 -1 -8 3 -5 6 6 6 11 1 17 -2 13 -5z m553 -4 c0 -5 -4 -10
-10 -10 -5 0 -10 5 -10 10 0 6 5 10 10 10 6 0 10 -4 10 -10z m-3120 -10 c0 -5
-2 -10 -4 -10 -3 0 -8 5 -11 10 -3 6 -1 10 4 10 6 0 11 -4 11 -10z m2610 -10
c0 -11 -7 -20 -15 -20 -13 0 -13 3 -3 20 7 11 14 20 15 20 2 0 3 -9 3 -20z
m-1530 -16 c0 -2 -9 0 -20 6 -11 6 -20 13 -20 16 0 2 9 0 20 -6 11 -6 20 -13
20 -16z m-106 1 c-4 -8 -8 -15 -10 -15 -2 0 -4 7 -4 15 0 8 4 15 10 15 5 0 7
-7 4 -15z m346 5 c12 -8 11 -10 -7 -10 -13 0 -23 5 -23 10 0 13 11 13 30 0z
m-390 -10 c0 -5 -2 -10 -4 -10 -3 0 -8 5 -11 10 -3 6 -1 10 4 10 6 0 11 -4 11
-10z m720 -10 c0 -11 -4 -20 -9 -20 -5 0 -7 9 -4 20 3 11 7 20 9 20 2 0 4 -9
4 -20z m-1505 0 c3 -5 1 -10 -4 -10 -6 0 -11 5 -11 10 0 6 2 10 4 10 3 0 8 -4
11 -10z m529 -3 c-3 -8 -11 -14 -19 -14 -11 0 -12 4 -4 14 6 7 15 13 20 13 5
0 6 -6 3 -13z m-331 -22 c-21 -16 -26 -14 -17 8 3 9 12 13 20 10 12 -4 11 -8
-3 -18z m411 4 c-9 -15 -34 -10 -28 5 3 8 12 12 20 9 8 -3 11 -9 8 -14z m31 2
c3 -5 1 -12 -5 -16 -5 -3 -10 1 -10 9 0 18 6 21 15 7z m131 -10 c0 -15 -4 -16
-17 -8 -19 12 -16 27 4 27 7 0 13 -8 13 -19z m444 15 c0 -3 -4 -8 -10 -11 -5
-3 -10 -1 -10 4 0 6 5 11 10 11 6 0 10 -2 10 -4z m405 -6 c3 -5 1 -10 -4 -10
-6 0 -11 5 -11 10 0 6 2 10 4 10 3 0 8 -4 11 -10z m955 0 c0 -5 -7 -10 -15
-10 -8 0 -15 5 -15 10 0 6 7 10 15 10 8 0 15 -4 15 -10z m-1649 -23 c-10 -9
-11 -8 -5 6 3 10 9 15 12 12 3 -3 0 -11 -7 -18z m439 13 c0 -5 -5 -10 -11 -10
-5 0 -7 5 -4 10 3 6 8 10 11 10 2 0 4 -4 4 -10z m1120 -10 c-8 -5 -17 -7 -19
-4 -3 3 1 9 9 14 8 5 17 7 19 4 3 -3 -1 -9 -9 -14z m-1965 1 c3 -5 1 -12 -5
-16 -5 -3 -10 1 -10 9 0 18 6 21 15 7z m1090 -29 c-6 -7 -35 18 -35 31 0 5 9
2 20 -8 11 -10 18 -20 15 -23z m-1025 19 c0 -12 -20 -25 -27 -18 -7 7 6 27 18
27 5 0 9 -4 9 -9z m1400 -1 c0 -5 -2 -10 -4 -10 -3 0 -8 5 -11 10 -3 6 -1 10
4 10 6 0 11 -4 11 -10z m-1377 -25 c-7 -21 -13 -19 -13 6 0 11 4 18 10 14 5
-3 7 -12 3 -20z m1884 3 c-3 -8 -6 -5 -6 6 -1 11 2 17 5 13 3 -3 4 -12 1 -19z
m-1710 -10 c-3 -8 -6 -5 -6 6 -1 11 2 17 5 13 3 -3 4 -12 1 -19z m522 1 c43
-15 40 -30 -4 -16 -19 6 -35 14 -35 19 0 10 1 10 39 -3z m-1086 -14 c4 -8 2
-17 -3 -20 -6 -4 -10 3 -10 14 0 25 6 27 13 6z m244 -7 c-3 -8 -6 -5 -6 6 -1
11 2 17 5 13 3 -3 4 -12 1 -19z m98 2 c3 -5 1 -10 -4 -10 -6 0 -11 5 -11 10 0
6 2 10 4 10 3 0 8 -4 11 -10z m1952 -12 c-2 -12 -11 -22 -20 -24 -21 -3 -21 5
0 28 21 23 24 23 20 -4z m-1886 -25 c-6 -10 -11 -13 -11 -6 0 7 -7 10 -15 7
-24 -10 -17 10 8 21 26 12 33 3 18 -22z m193 22 c-7 -16 -24 -21 -24 -6 0 8 7
13 27 20 1 1 0 -6 -3 -14z m199 0 c4 -8 3 -16 -1 -19 -4 -3 -9 4 -9 15 -2 23
3 25 10 4z m74 -7 c-3 -8 -6 -5 -6 6 -1 11 2 17 5 13 3 -3 4 -12 1 -19z m344
-1 c-10 -9 -11 -8 -5 6 3 10 9 15 12 12 3 -3 0 -11 -7 -18z m660 -10 c-10 -9
-11 -8 -5 6 3 10 9 15 12 12 3 -3 0 -11 -7 -18z m-1901 9 c0 -2 -7 -7 -16 -10
-8 -3 -12 -2 -9 4 6 10 25 14 25 6z m1040 -6 c0 -5 -2 -10 -4 -10 -3 0 -8 5
-11 10 -3 6 -1 10 4 10 6 0 11 -4 11 -10z m760 0 c0 -5 -4 -10 -10 -10 -5 0
-10 5 -10 10 0 6 5 10 10 10 6 0 10 -4 10 -10z m-1160 -10 c0 -5 -8 -10 -17
-10 -15 0 -16 2 -3 10 19 12 20 12 20 0z m-1086 -16 c3 -8 2 -12 -4 -9 -6 3
-10 10 -10 16 0 14 7 11 14 -7z m1156 0 c0 -2 -7 -4 -15 -4 -8 0 -15 4 -15 10
0 5 7 7 15 4 8 -4 15 -8 15 -10z m530 6 c0 -5 -2 -10 -4 -10 -3 0 -8 5 -11 10
-3 6 -1 10 4 10 6 0 11 -4 11 -10z m-865 -10 c3 -5 1 -10 -4 -10 -6 0 -11 5
-11 10 0 6 2 10 4 10 3 0 8 -4 11 -10z m195 0 c0 -5 -5 -10 -11 -10 -5 0 -7 5
-4 10 3 6 8 10 11 10 2 0 4 -4 4 -10z m255 -20 c3 -5 1 -10 -4 -10 -6 0 -11 5
-11 10 0 6 2 10 4 10 3 0 8 -4 11 -10z m-385 -4 c0 -3 -4 -8 -10 -11 -5 -3
-10 -1 -10 4 0 6 5 11 10 11 6 0 10 -2 10 -4z m230 0 c0 -3 -4 -8 -10 -11 -5
-3 -10 -1 -10 4 0 6 5 11 10 11 6 0 10 -2 10 -4z m-180 -32 c0 -8 -4 -12 -10
-9 -5 3 -10 10 -10 16 0 5 5 9 10 9 6 0 10 -7 10 -16z m40 -4 c0 -5 -7 -7 -15
-4 -8 4 -12 10 -9 15 6 11 24 2 24 -11z m324 -2 c-3 -5 -12 -4 -20 3 -19 16
-18 18 6 12 11 -3 17 -9 14 -15z m466 18 c0 -3 -4 -8 -10 -11 -5 -3 -10 -1
-10 4 0 6 5 11 10 11 6 0 10 -2 10 -4z m-992 -31 c-3 -3 -9 2 -12 12 -6 14 -5
15 5 6 7 -7 10 -15 7 -18z m1993 8 c13 -16 12 -17 -3 -4 -17 13 -22 21 -14 21
2 0 10 -8 17 -17z m-2161 -14 c0 -6 -4 -7 -10 -4 -5 3 -10 11 -10 16 0 6 5 7
10 4 6 -3 10 -11 10 -16z m470 0 c0 -6 -4 -7 -10 -4 -5 3 -10 11 -10 16 0 6 5
7 10 4 6 -3 10 -11 10 -16z m-625 1 c3 -5 1 -10 -4 -10 -6 0 -11 5 -11 10 0 6
2 10 4 10 3 0 8 -4 11 -10z m293 -15 c-3 -3 -9 2 -12 12 -6 14 -5 15 5 6 7 -7
10 -15 7 -18z m572 11 c0 -3 -4 -8 -10 -11 -5 -3 -10 -1 -10 4 0 6 5 11 10 11
6 0 10 -2 10 -4z m150 -17 c0 -6 -4 -7 -10 -4 -5 3 -10 11 -10 16 0 6 5 7 10
4 6 -3 10 -11 10 -16z m-630 -1 c0 -4 -4 -8 -9 -8 -6 0 -12 4 -15 8 -3 5 1 9
9 9 8 0 15 -4 15 -9z m30 2 c0 -5 -4 -10 -10 -10 -5 0 -10 5 -10 10 0 6 5 10
10 10 6 0 10 -4 10 -10z m720 -10 c6 -11 8 -20 6 -20 -3 0 -10 9 -16 20 -6 11
-8 20 -6 20 3 0 10 -9 16 -20z m-75 -2 c3 -3 -1 -8 -9 -11 -8 -3 -17 0 -19 8
-5 13 16 15 28 3z m55 -4 c0 -2 -7 -4 -15 -4 -8 0 -15 4 -15 10 0 5 7 7 15 4
8 -4 15 -8 15 -10z m78 -9 c-3 -3 -9 2 -12 12 -6 14 -5 15 5 6 7 -7 10 -15 7
-18z m-1160 -10 c9 -18 7 -21 -11 -22 -17 -2 -18 0 -7 7 12 8 12 10 -4 16 -13
5 -15 9 -5 15 8 4 14 7 15 6 1 -1 6 -11 12 -22z m402 9 c0 -8 -5 -12 -10 -9
-6 4 -8 11 -5 16 9 14 15 11 15 -7z m157 10 c-3 -3 -12 -4 -19 -1 -8 3 -5 6 6
6 11 1 17 -2 13 -5z m33 -4 c0 -5 -5 -10 -11 -10 -5 0 -7 5 -4 10 3 6 8 10 11
10 2 0 4 -4 4 -10z m190 0 c0 -5 -5 -10 -11 -10 -5 0 -7 5 -4 10 3 6 8 10 11
10 2 0 4 -4 4 -10z m460 0 c0 -5 -10 -10 -22 -10 -19 0 -20 2 -8 10 19 13 30
13 30 0z m-918 -22 c-3 -12 -7 -17 -10 -10 -2 7 -8 10 -13 7 -5 -4 -6 1 -3 9
10 25 33 19 26 -6z m406 8 c-7 -8 -15 -12 -17 -11 -5 6 10 25 20 25 5 0 4 -6
-3 -14z m-104 -12 c3 -8 2 -12 -4 -9 -6 3 -10 10 -10 16 0 14 7 11 14 -7z
m408 -6 c-7 -7 -12 -8 -12 -2 0 14 12 26 19 19 2 -3 -1 -11 -7 -17z m1233 12
c-3 -5 -12 -10 -18 -10 -7 0 -6 4 3 10 19 12 23 12 15 0z m-2009 -14 c3 -8 12
-12 20 -9 8 3 14 3 14 0 0 -15 -29 -13 -43 4 -9 10 -12 19 -7 19 6 0 13 -6 16
-14z m941 -8 c-3 -8 -6 -5 -6 6 -1 11 2 17 5 13 3 -3 4 -12 1 -19z m446 7 c-3
-9 -8 -14 -10 -11 -3 3 -2 9 2 15 9 16 15 13 8 -4z m-1453 -16 c0 -5 -10 -8
-22 -8 -18 1 -19 2 -5 6 9 2 14 9 11 15 -4 7 -2 8 4 4 7 -4 12 -11 12 -17z
m586 12 c-3 -5 1 -12 10 -15 9 -4 14 -9 11 -13 -9 -8 -38 17 -31 28 3 5 7 9
10 9 3 0 3 -4 0 -9z m-645 -38 c-12 -20 -14 -14 -5 12 4 9 9 14 11 11 3 -2 0
-13 -6 -23z m722 1 c-6 -17 -23 -9 -23 11 0 8 6 12 14 9 8 -3 12 -12 9 -20z
m97 0 c0 -8 -4 -14 -8 -14 -4 0 -8 9 -8 19 0 11 4 17 8 15 4 -3 8 -12 8 -20z
m347 20 c-3 -3 -12 -4 -19 -1 -8 3 -5 6 6 6 11 1 17 -2 13 -5z m-907 -20 c0
-14 -3 -14 -15 -4 -8 7 -15 14 -15 16 0 2 7 4 15 4 8 0 15 -7 15 -16z m624
-17 c4 -19 3 -26 -4 -22 -5 3 -10 18 -10 32 0 32 5 28 14 -10z m26 23 c0 -5
-4 -10 -10 -10 -5 0 -10 5 -10 10 0 6 5 10 10 10 6 0 10 -4 10 -10z m-1942
-17 c-2 -10 -11 -18 -21 -19 -14 -2 -14 -1 -1 3 8 3 13 11 10 19 -3 8 -1 14 5
14 6 0 9 -8 7 -17z m1385 -14 c-9 -9 -12 -7 -10 9 1 14 5 18 11 12 7 -7 6 -14
-1 -21z m120 -22 c-4 -6 -12 -3 -20 8 -8 13 -13 14 -13 5 0 -7 -2 -11 -5 -8
-3 3 -3 13 1 22 6 16 8 16 25 0 10 -9 16 -21 12 -27z m162 33 c-3 -5 -10 -10
-16 -10 -5 0 -9 5 -9 10 0 6 7 10 16 10 8 0 12 -4 9 -10z m485 -4 c0 -11 -19
-15 -25 -6 -3 5 1 10 9 10 9 0 16 -2 16 -4z m-1853 -43 c-3 -10 -5 -4 -5 12 0
17 2 24 5 18 2 -7 2 -21 0 -30z m739 5 c-2 -18 -4 -36 -5 -41 -2 -13 -41 17
-41 32 0 11 5 9 22 -5 19 -17 21 -17 15 -1 -4 9 -4 24 -1 32 10 25 14 17 10
-17z m814 22 c0 -5 -5 -10 -11 -10 -5 0 -7 5 -4 10 3 6 8 10 11 10 2 0 4 -4 4
-10z m-175 -10 c3 -5 2 -10 -4 -10 -5 0 -13 5 -16 10 -3 6 -2 10 4 10 5 0 13
-4 16 -10z m275 -26 c0 -14 -4 -23 -10 -19 -6 3 -13 -1 -16 -9 -3 -9 -10 -14
-14 -11 -5 3 -15 -4 -23 -16 -11 -14 -17 -17 -22 -9 -7 11 5 24 30 33 6 2 4
11 -4 20 -7 10 -9 17 -3 17 5 0 13 -8 17 -17 6 -17 7 -17 21 2 8 11 12 25 9
33 -2 7 0 10 5 7 6 -3 10 -17 10 -31z m85 26 c3 -5 1 -10 -4 -10 -6 0 -11 5
-11 10 0 6 2 10 4 10 3 0 8 -4 11 -10z m-695 -15 c6 3 10 1 10 -4 0 -16 -23
-13 -46 5 -18 14 -18 15 4 4 12 -6 27 -8 32 -5z m-60 1 c0 -3 -4 -8 -10 -11
-5 -3 -10 -1 -10 4 0 6 5 11 10 11 6 0 10 -2 10 -4z m-211 -27 c-16 -10 -23
-4 -14 10 3 6 11 8 17 5 6 -4 5 -9 -3 -15z m1046 11 c3 -5 1 -10 -4 -10 -6 0
-11 5 -11 10 0 6 2 10 4 10 3 0 8 -4 11 -10z m-1242 -15 c-3 -9 -8 -14 -10
-11 -3 3 -2 9 2 15 9 16 15 13 8 -4z m412 5 c-3 -5 2 -10 12 -10 15 0 16 -2 3
-10 -27 -17 -42 -12 -30 10 6 11 13 20 16 20 3 0 2 -4 -1 -10z m225 0 c0 -5
-2 -10 -4 -10 -3 0 -8 5 -11 10 -3 6 -1 10 4 10 6 0 11 -4 11 -10z m492 -4 c3
2 8 -2 11 -11 9 -22 -7 -18 -29 7 -12 14 -13 18 -3 10 9 -6 18 -9 21 -6z m249
-15 c-8 -6 -9 -11 -3 -15 6 -3 13 -2 17 4 8 13 55 13 55 0 0 -5 9 -10 20 -10
11 0 20 -4 20 -9 0 -5 -8 -8 -17 -7 -10 0 -19 -7 -21 -16 -2 -10 1 -18 7 -18
6 0 11 5 11 10 0 14 20 12 52 -4 21 -11 28 -12 32 -1 2 7 0 17 -5 22 -7 7 2 9
26 7 20 -1 40 -6 43 -10 4 -4 -3 -4 -15 -1 -15 3 -23 1 -23 -8 0 -7 -6 -18
-14 -25 -8 -6 -13 -17 -10 -25 5 -13 -14 -11 -83 10 -19 6 -23 2 -28 -29 -6
-29 -12 -36 -31 -36 -12 0 -26 5 -29 11 -4 6 -13 8 -20 5 -16 -6 -53 20 -42
30 4 4 7 2 7 -4 0 -20 17 -13 23 9 4 16 11 20 26 16 14 -3 19 -1 14 6 -5 9 -2
8 8 0 12 -10 17 -8 28 8 11 19 10 20 -8 14 -14 -4 -24 0 -33 14 -10 16 -15 18
-27 8 -12 -10 -14 -9 -8 6 4 11 10 30 13 44 5 18 9 22 18 13 8 -8 7 -13 -3
-19z m-826 -10 c-3 -6 -11 -11 -17 -11 -6 0 -6 6 2 15 14 17 26 13 15 -4z
m700 10 c3 -5 -2 -17 -11 -26 -15 -15 -17 -14 -29 2 -7 10 -11 20 -9 23 3 2 9
-2 14 -10 9 -14 14 -7 11 13 -1 10 17 9 24 -2z m-1060 -11 c-3 -5 -12 -10 -18
-10 -7 0 -6 4 3 10 19 12 23 12 15 0z m45 0 c0 -5 -7 -7 -15 -4 -8 4 -15 8
-15 10 0 2 7 4 15 4 8 0 15 -4 15 -10z m615 -8 c-3 -3 -11 0 -18 7 -9 10 -8
11 6 5 10 -3 15 -9 12 -12z m840 8 c3 -6 -1 -7 -9 -4 -18 7 -21 14 -7 14 6 0
13 -4 16 -10z m-2265 -9 c0 -6 -4 -13 -10 -16 -5 -3 -10 1 -10 9 0 9 5 16 10
16 6 0 10 -4 10 -9z m1207 -13 c-3 -8 -6 -5 -6 6 -1 11 2 17 5 13 3 -3 4 -12
1 -19z m-320 -10 c-3 -8 -6 -5 -6 6 -1 11 2 17 5 13 3 -3 4 -12 1 -19z m813 1
c0 7 5 9 10 6 6 -3 10 -1 10 4 0 6 7 11 15 11 17 0 20 -25 5 -35 -6 -4 -8 -11
-5 -16 4 -5 1 -9 -5 -9 -7 0 -9 7 -6 16 5 13 1 15 -19 10 -15 -4 -25 -2 -25 4
0 6 -4 8 -10 5 -5 -3 -10 2 -10 11 0 16 1 16 20 -1 12 -11 20 -13 20 -6z
m-958 -11 c-7 -7 -12 -8 -12 -2 0 14 12 26 19 19 2 -3 -1 -11 -7 -17z m35 -3
c-4 -8 -12 -15 -19 -14 -10 0 -10 2 0 6 6 2 12 12 12 21 0 8 3 13 6 9 4 -3 4
-13 1 -22z m593 15 c0 -5 -10 -10 -22 -9 -22 0 -22 1 -3 9 11 5 21 9 23 9 1 1
2 -3 2 -9z m44 -11 c-3 -5 -10 -7 -15 -3 -5 3 -7 10 -3 15 3 5 10 7 15 3 5 -3
7 -10 3 -15z m-437 -5 c-3 -3 -12 -4 -19 -1 -8 3 -5 6 6 6 11 1 17 -2 13 -5z
m1263 -10 c0 -8 -4 -12 -10 -9 -5 3 -10 10 -10 16 0 5 5 9 10 9 6 0 10 -7 10
-16z m-1134 -10 c17 -14 17 -15 1 -10 -10 3 -23 6 -28 6 -5 0 -9 5 -9 10 0 14
13 12 36 -6z m386 -9 c-2 -14 -6 -25 -8 -25 -2 0 -4 11 -4 25 0 14 4 25 9 25
4 0 6 -11 3 -25z m208 5 c0 -5 -5 -10 -11 -10 -5 0 -7 5 -4 10 3 6 8 10 11 10
2 0 4 -4 4 -10z m-910 -19 c0 -6 -4 -13 -10 -16 -5 -3 -10 1 -10 9 0 9 5 16
10 16 6 0 10 -4 10 -9z m60 -6 c7 -9 8 -15 2 -15 -5 0 -12 7 -16 15 -3 8 -4
15 -2 15 2 0 9 -7 16 -15z m50 -15 c0 -10 -7 -20 -15 -24 -12 -4 -15 1 -13 23
2 32 28 32 28 1z m50 26 c0 -2 -7 -6 -15 -10 -8 -3 -15 -1 -15 4 0 6 7 10 15
10 8 0 15 -2 15 -4z m250 -6 c0 -5 -2 -10 -4 -10 -3 0 -8 5 -11 10 -3 6 -1 10
4 10 6 0 11 -4 11 -10z m993 -5 c-3 -9 -8 -14 -10 -11 -3 3 -2 9 2 15 9 16 15
13 8 -4z m-759 -9 c-3 -8 0 -17 6 -21 9 -6 9 -9 -1 -15 -7 -5 -19 -2 -28 7
-13 14 -13 17 4 29 24 17 26 17 19 0z m223 8 c-3 -3 -12 -4 -19 -1 -8 3 -5 6
6 6 11 1 17 -2 13 -5z m63 2 c0 -3 -4 -8 -10 -11 -5 -3 -10 -1 -10 4 0 6 5 11
10 11 6 0 10 -2 10 -4z m-913 -24 c-10 -10 -14 -22 -10 -27 5 -4 2 -5 -4 -1
-10 5 -10 11 0 26 6 11 16 20 21 20 5 0 2 -8 -7 -18z m1017 -11 c-2 -3 -12 3
-22 13 -16 17 -16 18 5 5 12 -7 20 -15 17 -18z m-714 9 c0 -5 -5 -10 -11 -10
-5 0 -7 5 -4 10 3 6 8 10 11 10 2 0 4 -4 4 -10z m95 -8 c3 -10 0 -12 -10 -8
-9 3 -15 0 -15 -8 0 -8 -7 -17 -16 -20 -13 -5 -14 -4 -6 7 7 8 9 17 6 20 -9 9
3 24 20 24 8 0 18 -7 21 -15z m685 -15 c0 -5 -4 -5 -10 -2 -5 3 -10 14 -10 23
0 15 2 15 10 2 5 -8 10 -19 10 -23z m-1160 8 c7 -9 8 -15 2 -15 -5 0 -12 7
-16 15 -3 8 -4 15 -2 15 2 0 9 -7 16 -15z m1010 7 c0 -5 -7 -9 -15 -9 -8 0
-15 4 -15 9 0 4 7 8 15 8 8 0 15 -4 15 -8z m54 -7 c3 -8 1 -15 -4 -15 -6 0
-10 7 -10 15 0 8 2 15 4 15 2 0 6 -7 10 -15z m-164 -5 c0 -5 -4 -10 -10 -10
-5 0 -10 5 -10 10 0 6 5 10 10 10 6 0 10 -4 10 -10z m50 -2 c0 -3 -9 -6 -20
-5 -11 1 -20 5 -20 9 0 3 9 6 20 5 11 -1 20 -5 20 -9z m-1017 -28 c3 -11 1
-20 -4 -20 -5 0 -9 9 -9 20 0 11 2 20 4 20 2 0 6 -9 9 -20z m53 -28 c-6 -5
-36 23 -36 34 0 4 9 -1 20 -11 11 -10 18 -20 16 -23z m724 28 c12 -8 11 -10
-7 -10 -12 0 -25 5 -28 10 -8 13 15 13 35 0z m560 0 c0 -5 -5 -10 -11 -10 -5
0 -7 5 -4 10 3 6 8 10 11 10 2 0 4 -4 4 -10z m-1180 -4 c0 -2 -7 -7 -16 -10
-8 -3 -12 -2 -9 4 6 10 25 14 25 6z m810 -16 c0 -5 -4 -10 -10 -10 -5 0 -10 5
-10 10 0 6 5 10 10 10 6 0 10 -4 10 -10z m-980 -21 c0 -6 -4 -7 -10 -4 -5 3
-10 11 -10 16 0 6 5 7 10 4 6 -3 10 -11 10 -16z m609 -8 c0 -10 -2 -11 -6 -3
-2 6 -11 12 -18 12 -8 0 -16 4 -19 9 -3 4 6 6 19 3 15 -2 25 -11 24 -21z m631
25 c0 -3 -4 -8 -10 -11 -5 -3 -10 -1 -10 4 0 6 5 11 10 11 6 0 10 -2 10 -4z
m-1890 -14 c0 -5 -7 -9 -15 -9 -8 0 -12 4 -9 9 3 4 9 8 15 8 5 0 9 -4 9 -8z
m1440 4 c0 -3 -4 -8 -10 -11 -5 -3 -10 -1 -10 4 0 6 5 11 10 11 6 0 10 -2 10
-4z m-50 -16 c0 -5 -2 -10 -4 -10 -3 0 -8 5 -11 10 -3 6 -1 10 4 10 6 0 11 -4
11 -10z m1577 -22 c-3 -8 -6 -5 -6 6 -1 11 2 17 5 13 3 -3 4 -12 1 -19z
m-1160 -10 c-3 -8 -6 -5 -6 6 -1 11 2 17 5 13 3 -3 4 -12 1 -19z m257 14 c3
-5 -1 -9 -9 -9 -8 0 -12 4 -9 9 3 4 7 8 9 8 2 0 6 -4 9 -8z m-464 -6 c0 -3 -4
-8 -10 -11 -5 -3 -10 -1 -10 4 0 6 5 11 10 11 6 0 10 -2 10 -4z m-183 -48 c-3
-8 -6 -5 -6 6 -1 11 2 17 5 13 3 -3 4 -12 1 -19z m579 -14 c-4 -9 -9 -15 -11
-12 -3 3 -3 13 1 22 4 9 9 15 11 12 3 -3 3 -13 -1 -22z m-2374 -14 c25 0 40
-33 28 -64 -5 -14 -12 -26 -15 -26 -37 0 -84 72 -64 96 8 10 15 12 23 4 5 -5
18 -10 28 -10z m2408 10 c0 -5 -2 -10 -4 -10 -3 0 -8 5 -11 10 -3 6 -1 10 4
10 6 0 11 -4 11 -10z m937 -42 c-3 -8 -6 -5 -6 6 -1 11 2 17 5 13 3 -3 4 -12
1 -19z m-1806 -11 c-10 -9 -11 -8 -5 6 3 10 9 15 12 12 3 -3 0 -11 -7 -18z
m79 13 c0 -5 -2 -10 -4 -10 -3 0 -8 5 -11 10 -3 6 -1 10 4 10 6 0 11 -4 11
-10z m10 -30 c0 -5 -2 -10 -4 -10 -3 0 -8 5 -11 10 -3 6 -1 10 4 10 6 0 11 -4
11 -10z m135 0 c3 -5 1 -10 -4 -10 -6 0 -11 5 -11 10 0 6 2 10 4 10 3 0 8 -4
11 -10z m-200 -20 c3 -5 -1 -10 -9 -10 -8 0 -18 5 -21 10 -3 6 1 10 9 10 8 0
18 -4 21 -10z m215 -34 c0 -3 -4 -8 -10 -11 -5 -3 -10 -1 -10 4 0 6 5 11 10
11 6 0 10 -2 10 -4z m-246 -62 c9 -24 7 -27 -9 -10 -17 17 -19 26 -6 26 5 0
12 -7 15 -16z m6 -64 c0 -5 -5 -10 -11 -10 -5 0 -7 5 -4 10 3 6 8 10 11 10 2
0 4 -4 4 -10z m0 -30 c0 -5 -2 -10 -4 -10 -3 0 -8 5 -11 10 -3 6 -1 10 4 10 6
0 11 -4 11 -10z m279 -37 c1 -1 0 -7 -4 -13 -5 -8 -11 -5 -21 7 -19 25 -17 38
4 22 9 -7 19 -14 21 -16z m-144 -12 c3 -5 1 -12 -5 -16 -5 -3 -10 1 -10 9 0
18 6 21 15 7z m-155 -29 c0 -8 -1 -13 -3 -11 -1 2 -9 12 -16 22 -12 15 -12 17
3 11 9 -3 16 -13 16 -22z m30 -3 c0 -6 -4 -7 -10 -4 -5 3 -10 11 -10 16 0 6 5
7 10 4 6 -3 10 -11 10 -16z m320 -29 c0 -5 -2 -10 -4 -10 -3 0 -8 5 -11 10 -3
6 -1 10 4 10 6 0 11 -4 11 -10z m-195 -10 c3 -5 -1 -10 -10 -10 -9 0 -13 5
-10 10 3 6 8 10 10 10 2 0 7 -4 10 -10z"/>
<path d="M2100 3009 c-53 -11 -89 -24 -97 -35 -29 -40 -5 -44 75 -14 61 23
126 26 164 6 41 -22 44 -1 4 30 -43 34 -43 34 -146 13z"/>
<path d="M1594 2970 c-31 -10 -72 -46 -62 -55 3 -3 17 -1 32 5 63 24 212 0
244 -39 11 -14 12 -13 6 9 -11 39 -46 80 -68 80 -12 0 -43 2 -71 5 -27 2 -64
0 -81 -5z"/>
<path d="M2014 2884 c-19 -15 -19 -16 0 -9 20 6 20 6 0 -17 l-19 -22 28 18
c16 10 30 16 31 14 1 -2 10 -15 19 -30 10 -16 23 -28 31 -28 18 0 46 33 46 55
0 16 2 16 23 2 12 -8 21 -20 20 -25 -1 -6 7 -8 17 -5 29 8 24 19 -16 38 -39
18 -82 21 -134 10 -23 -5 -30 -4 -26 4 10 15 3 14 -20 -5z m106 -18 c0 -3 -4
-8 -10 -11 -5 -3 -10 -1 -10 4 0 6 5 11 10 11 6 0 10 -2 10 -4z"/>
<path d="M1621 2850 c-35 -16 -42 -17 -37 -4 3 8 2 12 -4 9 -12 -8 -13 -55 -1
-55 5 0 14 7 21 15 18 21 48 19 55 -5 4 -14 15 -20 36 -20 25 0 30 5 36 30 6
34 6 34 36 19 21 -11 21 -10 6 6 -26 27 -96 29 -148 5z m89 -10 c0 -5 -5 -10
-11 -10 -5 0 -7 5 -4 10 3 6 8 10 11 10 2 0 4 -4 4 -10z"/>
<path d="M1771 2867 c2 -1 13 -9 24 -17 19 -14 19 -14 6 3 -7 9 -18 17 -24 17
-6 0 -8 -1 -6 -3z"/>
<path d="M1790 2816 c0 -9 5 -16 10 -16 6 0 10 4 10 9 0 6 -4 13 -10 16 -5 3
-10 -1 -10 -9z"/>
<path d="M2485 2810 c3 -5 8 -10 11 -10 2 0 4 5 4 10 0 6 -5 10 -11 10 -5 0
-7 -4 -4 -10z"/>
<path d="M1956 2571 c-4 -5 -1 -11 6 -13 19 -7 58 3 52 13 -7 12 -51 12 -58 0z"/>
<path d="M1815 2561 c-7 -12 31 -25 45 -16 6 4 8 11 5 16 -8 12 -42 12 -50 0z"/>
<path d="M1870 2449 c0 -5 5 -7 10 -4 6 3 10 8 10 11 0 2 -4 4 -10 4 -5 0 -10
-5 -10 -11z"/>
<path d="M1965 2450 c3 -5 11 -10 16 -10 6 0 7 5 4 10 -3 6 -11 10 -16 10 -6
0 -7 -4 -4 -10z"/>
<path d="M2104 2425 c5 -20 2 -27 -16 -34 l-22 -8 21 -12 c15 -7 24 -8 28 -1
4 6 18 9 33 8 18 -2 27 2 30 14 4 20 -35 58 -61 58 -16 0 -18 -5 -13 -25z"/>
<path d="M1676 2401 c-11 -12 -15 -24 -9 -33 13 -22 82 -26 111 -7 16 10 16
10 0 5 -10 -3 -18 -1 -18 4 0 6 -9 10 -20 10 -14 0 -18 5 -13 17 4 11 3 14 -5
9 -7 -4 -12 -2 -12 3 0 17 -15 13 -34 -8z"/>
<path d="M1908 2263 c7 -3 16 -2 19 1 4 3 -2 6 -13 5 -11 0 -14 -3 -6 -6z"/>
<path d="M2301 2233 c-10 -26 -10 -27 4 -9 8 11 15 23 15 28 0 15 -7 8 -19
-19z"/>
<path d="M2177 2111 c-20 -9 -35 -20 -32 -23 3 -3 -6 -9 -20 -12 -14 -4 -23
-11 -20 -16 14 -23 -58 -35 -200 -35 -69 1 -96 5 -117 19 -16 10 -35 15 -47
11 -14 -4 -27 2 -47 24 -15 17 -35 31 -46 31 -17 0 -17 -2 2 -32 42 -70 163
-126 275 -129 69 -2 274 114 261 147 -3 8 -2 13 3 10 5 -3 14 1 21 9 15 19 14
18 -33 -4z"/>
<path d="M1410 1781 c0 -5 5 -13 10 -16 6 -3 10 -2 10 4 0 5 -4 13 -10 16 -5
3 -10 2 -10 -4z"/>
<path d="M1030 1615 c0 -6 6 -18 13 -27 12 -15 14 -15 26 4 11 18 11 20 -2 15
-8 -3 -20 0 -26 6 -6 6 -11 7 -11 2z"/>
<path d="M890 1577 c0 -2 7 -18 15 -35 11 -20 21 -29 31 -25 12 4 12 7 1 17
-7 6 -21 19 -30 29 -9 10 -17 17 -17 14z"/>
<path d="M994 1569 c-3 -6 -1 -16 5 -22 8 -8 11 -5 11 11 0 24 -5 28 -16 11z"/>
<path d="M1020 1565 c0 -8 2 -15 4 -15 2 0 6 7 10 15 3 8 1 15 -4 15 -6 0 -10
-7 -10 -15z"/>
<path d="M1039 1498 c4 -12 13 -24 19 -26 16 -5 3 36 -13 42 -11 4 -12 0 -6
-16z"/>
<path d="M797 1469 c7 -27 23 -34 23 -11 0 11 -6 22 -14 25 -10 4 -12 0 -9
-14z"/>
<path d="M861 1474 c0 -11 3 -14 6 -6 3 7 2 16 -1 19 -3 4 -6 -2 -5 -13z"/>
<path d="M750 1447 c0 -15 21 -47 30 -47 6 0 10 9 10 21 0 12 -4 18 -11 13 -6
-3 -15 0 -20 7 -5 8 -9 10 -9 6z"/>
<path d="M730 1408 c0 -7 9 -19 20 -26 17 -10 20 -10 20 3 0 8 -9 19 -20 25
-15 8 -20 8 -20 -2z"/>
<path d="M2545 680 c-3 -5 1 -10 10 -10 9 0 13 5 10 10 -3 6 -8 10 -10 10 -2
0 -7 -4 -10 -10z"/>
</g>
</svg>
